<svg width="40" height="41" viewBox="0 0 40 41" fill="none" xmlns="http://www.w3.org/2000/svg">
<path d="M39.0371 2.16096C38.7074 1.83149 38.3167 1.66621 37.8651 1.66621C37.4138 1.66621 37.0236 1.83149 36.6933 2.16096L33.3081 5.52083C31.4505 3.76715 29.3235 2.40833 26.9278 1.44502C24.5324 0.481611 22.0664 0 19.5316 0C14.7571 0 10.5906 1.44511 7.03142 4.33596C3.47215 7.22645 1.1285 10.9978 0 15.6509L0 15.8331C0 16.0587 0.0823663 16.2542 0.247373 16.4189C0.412379 16.5839 0.607577 16.6663 0.83324 16.6663H6.01548C6.39757 16.6663 6.6578 16.4665 6.79681 16.0675C7.52589 14.3315 7.98579 13.3159 8.17697 13.0206C9.39213 11.0415 11.0067 9.48756 13.0207 8.35906C15.0349 7.23064 17.205 6.66621 19.5312 6.66621C23.0212 6.66621 26.0506 7.85555 28.6202 10.2341L25.0259 13.8276C24.6968 14.1575 24.5314 14.5484 24.5314 14.9998C24.5314 15.4511 24.6968 15.8418 25.0259 16.1716C25.3561 16.5016 25.7469 16.6664 26.1983 16.6664H37.8651C38.3166 16.6664 38.7073 16.5016 39.0371 16.1716C39.3666 15.8418 39.5314 15.4512 39.5314 14.9998V3.33288C39.5314 2.88146 39.3676 2.49097 39.0371 2.16096Z" fill="white"/>
<path d="M38.5154 23.6675H33.5154C33.1334 23.6675 32.873 23.867 32.7344 24.2664C32.0056 26.0026 31.5452 27.0177 31.3545 27.3129C30.1389 29.2917 28.5243 30.8461 26.5108 31.9745C24.4965 33.1033 22.3265 33.6671 20.0001 33.6671C18.3162 33.6671 16.6928 33.3549 15.1305 32.7301C13.568 32.1045 12.1702 31.2189 10.9377 30.073L14.5056 26.5054C14.8353 26.1759 15.0003 25.7847 15.0003 25.3336C15.0003 24.8823 14.8353 24.4911 14.5056 24.1618C14.1757 23.8316 13.7852 23.6664 13.3338 23.6664H1.66685C1.21515 23.6664 0.824484 23.8316 0.494654 24.1618C0.164824 24.4912 0 24.8824 0 25.3337L0 37.0006C0 37.4517 0.164824 37.8427 0.494745 38.1725C0.824849 38.5017 1.21552 38.6676 1.66694 38.6676C2.11826 38.6676 2.50875 38.5018 2.83876 38.1725L6.19808 34.8128C8.05584 36.5832 10.1697 37.9464 12.5396 38.9013C14.9094 39.8565 17.3617 40.3334 19.8962 40.3334C24.6535 40.3334 28.8027 38.8881 32.3443 35.9976C35.886 33.1072 38.2124 29.3352 39.324 24.6825C39.3414 24.6478 39.3496 24.587 39.3496 24.5005C39.3496 24.2745 39.2669 24.0799 39.102 23.9143C38.9369 23.7502 38.7414 23.6675 38.5154 23.6675Z" fill="white"/>
</svg>
